<svg width="40" height="40" viewBox="0 0 40 40" fill="none" xmlns="http://www.w3.org/2000/svg">
<rect width="40" height="40" rx="20" fill="#EF8181"/>
<rect x="2" y="2" width="35.2" height="35.2" rx="17.6" fill="url(#paint0_linear)"/>
<path d="M20.5815 21.8101H16.4067V29H14.0508V11.2266H19.9346C21.9365 11.2266 23.4746 11.6823 24.5488 12.5938C25.6312 13.5052 26.1724 14.8317 26.1724 16.5732C26.1724 17.68 25.8713 18.6444 25.269 19.4663C24.675 20.2882 23.8449 20.9027 22.7788 21.3096L26.9536 28.8535V29H24.439L20.5815 21.8101ZM16.4067 19.8936H20.0078C21.1715 19.8936 22.0952 19.5924 22.7788 18.9902C23.4705 18.388 23.8164 17.5824 23.8164 16.5732C23.8164 15.4746 23.4868 14.6323 22.8276 14.0464C22.1766 13.4604 21.2326 13.1634 19.9956 13.1553H16.4067V19.8936Z" fill="#EF8181"/>
<defs>
<linearGradient id="paint0_linear" x1="26" y1="4" x2="11.2" y2="35.6" gradientUnits="userSpaceOnUse">
<stop stop-color="#FDF6B6"/>
<stop offset="1" stop-color="#F7E012"/>
</linearGradient>
</defs>
</svg>
